<svg width="192" height="66" viewBox="0 0 192 66" fill="none" xmlns="http://www.w3.org/2000/svg">
<path d="M0.5 48V2H8.1V6.2C8.83333 5.06666 9.66667 4.13333 10.6 3.4C11.5333 2.6 12.5333 2 13.6 1.6C14.7333 1.13333 15.8667 0.899998 17 0.899998C18.2667 0.899998 19.4333 1.16666 20.5 1.7C21.6333 2.16666 22.5667 2.9 23.3 3.9C24.1 4.83333 24.6667 5.96667 25 7.3C25.6667 5.96667 26.5 4.83333 27.5 3.9C28.5 2.96667 29.6667 2.23333 31 1.7C32.3333 1.16666 33.7333 0.899998 35.2 0.899998C36.8 0.899998 38.1667 1.2 39.3 1.8C40.4333 2.4 41.3667 3.23333 42.1 4.3C42.9 5.36666 43.4667 6.66666 43.8 8.2C44.1333 9.73333 44.2667 11.4 44.2 13.2V48H36.5V15.8C36.5 13.2667 36.3333 11.4 36 10.2C35.7333 8.93333 35.3 8.13333 34.7 7.8C34.1667 7.4 33.5 7.2 32.7 7.2C31.5667 7.2 30.5 7.73333 29.5 8.8C28.5 9.8 27.6667 11.1333 27 12.8C26.4 14.4 26.1 16.1 26.1 17.9V48H18.6V16.3C18.6 12.7 18.2667 10.3 17.6 9.1C17 7.9 15.8667 7.3 14.2 7.3C13.4667 7.3 12.7333 7.53333 12 8C11.3333 8.46667 10.7 9.13333 10.1 10C9.56667 10.8 9.1 11.8667 8.7 13.2C8.36667 14.4667 8.2 15.9 8.2 17.5V48H0.5Z" fill="#FEAFBE"/>
<path d="M0.5 48V2H8.1V6.2C8.83333 5.06666 9.66667 4.13333 10.6 3.4C11.5333 2.6 12.5333 2 13.6 1.6C14.7333 1.13333 15.8667 0.899998 17 0.899998C18.2667 0.899998 19.4333 1.16666 20.5 1.7C21.6333 2.16666 22.5667 2.9 23.3 3.9C24.1 4.83333 24.6667 5.96667 25 7.3C25.6667 5.96667 26.5 4.83333 27.5 3.9C28.5 2.96667 29.6667 2.23333 31 1.7C32.3333 1.16666 33.7333 0.899998 35.2 0.899998C36.8 0.899998 38.1667 1.2 39.3 1.8C40.4333 2.4 41.3667 3.23333 42.1 4.3C42.9 5.36666 43.4667 6.66666 43.8 8.2C44.1333 9.73333 44.2667 11.4 44.2 13.2V48H36.5V15.8C36.5 13.2667 36.3333 11.4 36 10.2C35.7333 8.93333 35.3 8.13333 34.7 7.8C34.1667 7.4 33.5 7.2 32.7 7.2C31.5667 7.2 30.5 7.73333 29.5 8.8C28.5 9.8 27.6667 11.1333 27 12.8C26.4 14.4 26.1 16.1 26.1 17.9V48H18.6V16.3C18.6 12.7 18.2667 10.3 17.6 9.1C17 7.9 15.8667 7.3 14.2 7.3C13.4667 7.3 12.7333 7.53333 12 8C11.3333 8.46667 10.7 9.13333 10.1 10C9.56667 10.8 9.1 11.8667 8.7 13.2C8.36667 14.4667 8.2 15.9 8.2 17.5V48H0.5Z" fill="#372E40"/>
<path d="M59.7 65.5C57.5 65.5 55.5 65.1333 53.7 64.4C51.9667 63.7333 50.4 62.7333 49 61.4L52.3 55.6L52.9 54.7L53.6 55.1C53.7333 55.6333 53.9667 56.1 54.3 56.5C54.6333 56.9 55.2333 57.4 56.1 58C56.7 58.2 57.3 58.3333 57.9 58.4C58.5667 58.5333 59.2333 58.6 59.9 58.6C61.5667 58.6 62.9667 58.2 64.1 57.4C65.2333 56.6 66.2333 55.3333 67.1 53.6C68.0333 51.8667 68.9333 49.7 69.8 47.1L79 19.7C80 16.7 80.9 13.7667 81.7 10.9C82.5667 7.96666 83.1333 5 83.4 2H91.7C91.3 5.06666 90.5667 8.2 89.5 11.4C88.5 14.6 87.4333 17.7333 86.3 20.8L74.9 52.8C73.1667 57.4667 71.0333 60.7333 68.5 62.6C65.9667 64.5333 63.0333 65.5 59.7 65.5ZM51.1 2H59.9L74.3 39.3L70.2 49.2L51.1 2Z" fill="#FEAFBE"/>
<path d="M59.7 65.5C57.5 65.5 55.5 65.1333 53.7 64.4C51.9667 63.7333 50.4 62.7333 49 61.4L52.3 55.6L52.9 54.7L53.6 55.1C53.7333 55.6333 53.9667 56.1 54.3 56.5C54.6333 56.9 55.2333 57.4 56.1 58C56.7 58.2 57.3 58.3333 57.9 58.4C58.5667 58.5333 59.2333 58.6 59.9 58.6C61.5667 58.6 62.9667 58.2 64.1 57.4C65.2333 56.6 66.2333 55.3333 67.1 53.6C68.0333 51.8667 68.9333 49.7 69.8 47.1L79 19.7C80 16.7 80.9 13.7667 81.7 10.9C82.5667 7.96666 83.1333 5 83.4 2H91.7C91.3 5.06666 90.5667 8.2 89.5 11.4C88.5 14.6 87.4333 17.7333 86.3 20.8L74.9 52.8C73.1667 57.4667 71.0333 60.7333 68.5 62.6C65.9667 64.5333 63.0333 65.5 59.7 65.5ZM51.1 2H59.9L74.3 39.3L70.2 49.2L51.1 2Z" fill="#E68E7B"/>
<path d="M100.5 48V2H108.1V6.2C108.833 5.06666 109.667 4.13333 110.6 3.4C111.533 2.6 112.533 2 113.6 1.6C114.733 1.13333 115.867 0.899998 117 0.899998C118.267 0.899998 119.433 1.16666 120.5 1.7C121.633 2.16666 122.567 2.9 123.3 3.9C124.1 4.83333 124.667 5.96667 125 7.3C125.667 5.96667 126.5 4.83333 127.5 3.9C128.5 2.96667 129.667 2.23333 131 1.7C132.333 1.16666 133.733 0.899998 135.2 0.899998C136.8 0.899998 138.167 1.2 139.3 1.8C140.433 2.4 141.367 3.23333 142.1 4.3C142.9 5.36666 143.467 6.66666 143.8 8.2C144.133 9.73333 144.267 11.4 144.2 13.2V48H136.5V15.8C136.5 13.2667 136.333 11.4 136 10.2C135.733 8.93333 135.3 8.13333 134.7 7.8C134.167 7.4 133.5 7.2 132.7 7.2C131.567 7.2 130.5 7.73333 129.5 8.8C128.5 9.8 127.667 11.1333 127 12.8C126.4 14.4 126.1 16.1 126.1 17.9V48H118.6V16.3C118.6 12.7 118.267 10.3 117.6 9.1C117 7.9 115.867 7.3 114.2 7.3C113.467 7.3 112.733 7.53333 112 8C111.333 8.46667 110.7 9.13333 110.1 10C109.567 10.8 109.1 11.8667 108.7 13.2C108.367 14.4667 108.2 15.9 108.2 17.5V48H100.5Z" fill="#FEAFBE"/>
<path d="M100.5 48V2H108.1V6.2C108.833 5.06666 109.667 4.13333 110.6 3.4C111.533 2.6 112.533 2 113.6 1.6C114.733 1.13333 115.867 0.899998 117 0.899998C118.267 0.899998 119.433 1.16666 120.5 1.7C121.633 2.16666 122.567 2.9 123.3 3.9C124.1 4.83333 124.667 5.96667 125 7.3C125.667 5.96667 126.5 4.83333 127.5 3.9C128.5 2.96667 129.667 2.23333 131 1.7C132.333 1.16666 133.733 0.899998 135.2 0.899998C136.8 0.899998 138.167 1.2 139.3 1.8C140.433 2.4 141.367 3.23333 142.1 4.3C142.9 5.36666 143.467 6.66666 143.8 8.2C144.133 9.73333 144.267 11.4 144.2 13.2V48H136.5V15.8C136.5 13.2667 136.333 11.4 136 10.2C135.733 8.93333 135.3 8.13333 134.7 7.8C134.167 7.4 133.5 7.2 132.7 7.2C131.567 7.2 130.5 7.73333 129.5 8.8C128.5 9.8 127.667 11.1333 127 12.8C126.4 14.4 126.1 16.1 126.1 17.9V48H118.6V16.3C118.6 12.7 118.267 10.3 117.6 9.1C117 7.9 115.867 7.3 114.2 7.3C113.467 7.3 112.733 7.53333 112 8C111.333 8.46667 110.7 9.13333 110.1 10C109.567 10.8 109.1 11.8667 108.7 13.2C108.367 14.4667 108.2 15.9 108.2 17.5V48H100.5Z" fill="#FF607E"/>
<path d="M159.7 65.5C157.5 65.5 155.5 65.1333 153.7 64.4C151.967 63.7333 150.4 62.7333 149 61.4L152.3 55.6L152.9 54.7L153.6 55.1C153.733 55.6333 153.967 56.1 154.3 56.5C154.633 56.9 155.233 57.4 156.1 58C156.7 58.2 157.3 58.3333 157.9 58.4C158.567 58.5333 159.233 58.6 159.9 58.6C161.567 58.6 162.967 58.2 164.1 57.4C165.233 56.6 166.233 55.3333 167.1 53.6C168.033 51.8667 168.933 49.7 169.8 47.1L179 19.7C180 16.7 180.9 13.7667 181.7 10.9C182.567 7.96666 183.133 5 183.4 2H191.7C191.3 5.06666 190.567 8.2 189.5 11.4C188.5 14.6 187.433 17.7333 186.3 20.8L174.9 52.8C173.167 57.4667 171.033 60.7333 168.5 62.6C165.967 64.5333 163.033 65.5 159.7 65.5ZM151.1 2H159.9L174.3 39.3L170.2 49.2L151.1 2Z" fill="#FEAFBE"/>
<path d="M159.7 65.5C157.5 65.5 155.5 65.1333 153.7 64.4C151.967 63.7333 150.4 62.7333 149 61.4L152.3 55.6L152.9 54.7L153.6 55.1C153.733 55.6333 153.967 56.1 154.3 56.5C154.633 56.9 155.233 57.4 156.1 58C156.7 58.2 157.3 58.3333 157.9 58.4C158.567 58.5333 159.233 58.6 159.9 58.6C161.567 58.6 162.967 58.2 164.1 57.4C165.233 56.6 166.233 55.3333 167.1 53.6C168.033 51.8667 168.933 49.7 169.8 47.1L179 19.7C180 16.7 180.9 13.7667 181.7 10.9C182.567 7.96666 183.133 5 183.4 2H191.7C191.3 5.06666 190.567 8.2 189.5 11.4C188.5 14.6 187.433 17.7333 186.3 20.8L174.9 52.8C173.167 57.4667 171.033 60.7333 168.5 62.6C165.967 64.5333 163.033 65.5 159.7 65.5ZM151.1 2H159.9L174.3 39.3L170.2 49.2L151.1 2Z" fill="black" fill-opacity="0.2"/>
</svg>
